<svg id="Lager_1" data-name="Lager 1" xmlns="http://www.w3.org/2000/svg" viewBox="0 0 710.9 152.4"><defs><style>.cls-1{fill:#fff;}</style></defs><title>Zonnic_White</title><g id="Group"><path class="cls-1" d="M174,41c-36.9,0-66.7,25-66.7,55.7s29.8,55.7,66.7,55.7,66.7-24.9,66.7-55.7S210.8,41,174,41Zm.2,87.1c-14.2,0-25.8-14.1-25.8-31.4s11.5-31.4,25.8-31.4S200,79.3,200,96.7,188.4,128.1,174.2,128.1ZM322,42.4c-14.4,0-27.3,6.8-36.3,17.7,0-.3.1-.6.1-.9a13.55,13.55,0,0,0-13.4-13.5v-.1H251.3V148.9h16.9A22.18,22.18,0,0,0,290,126.8V92c0-12.8,9.5-23.2,21-23.2s20.6,4.7,21,22.2v58h16.9a22,22,0,0,0,21.7-22.1c0-.3.1-29.8.1-30.3C370.6,53.6,348.9,42.4,322,42.4Zm132.3,0c-14.7,0-27.1,6.8-36.4,17.7,0-.3.1-.6.1-.9a13.69,13.69,0,0,0-13.4-13.5v-.1H383.2V148.9h17.5a22.34,22.34,0,0,0,21.6-22.1V92c0-12.8,9.3-23.2,20.9-23.2S463.7,73.5,464,91v58h17.1A22.33,22.33,0,0,0,503,126.9c0-.3.1-29.8.1-30.3C503,53.6,481.2,42.4,454.3,42.4Zm78.2,3.3A13.73,13.73,0,0,0,518.7,59l.1,90h17.1c11.9-.2,22-10,22-22.1,0-.2.1-81.2.1-81.2ZM666,121.5a46.51,46.51,0,0,1-20.2,4.4c-20.8,0-37.3-13.2-37.3-29.5S625,66.9,645.8,66.9a47.92,47.92,0,0,1,18.9,3.8l5.7-22.8a90,90,0,0,0-30.3-5.2c-40.1,0-72.5,24.6-72.5,54.8s32.5,54.9,72.5,54.9a90.77,90.77,0,0,0,30.5-5.2ZM83.3,123H48.5l58.3-58.3V45.2H3.1C3.1,59.1,15,71,28.9,71H58.8L0,129.9v18.9l109,.1A26.33,26.33,0,0,0,83.3,123ZM695.5,45.1a15.35,15.35,0,1,1,0,30.7,15.35,15.35,0,1,1,0-30.7Zm-.1,3c-6.3,0-11.4,5.5-11.4,12.2s5.1,12.2,11.5,12.2,11.4-5.4,11.4-12.2-5-12.2-11.4-12.2Zm-2.2,20.2h-3.3V53.1a25.74,25.74,0,0,1,5.5-.5c2.8,0,3.9.5,5,1.2a4.48,4.48,0,0,1,1.5,3.3,4,4,0,0,1-3.1,3.7V61c1.4.5,2.2,1.7,2.7,3.7.5,2.4.7,3.3,1.1,3.8h-3.7c-.5-.6-.7-1.9-1.2-3.7-.3-1.7-1.1-2.4-3-2.4h-1.6v5.9Zm.1-8.6h1.6c1.8,0,3.3-.6,3.3-2.3,0-1.4-1-2.3-3.1-2.3a6.25,6.25,0,0,0-1.8.2ZM556.6,17.4a17.5,17.5,0,0,1-35-.2A17.55,17.55,0,0,1,538.9,0C548.7.1,556.7,7.9,556.6,17.4Z"></path></g></svg>
